PathFileType	4	(X/Y/Z)	C:\Users\Basilio\Documents\Thesis Gigler\squatting_fais\c3dfiles\058\SLS_back_pre3\markers_experimental.trc
DataRate	CameraRate	NumFrames	NumMarkers	Units	OrigDataRate	OrigDataStartFrame	OrigNumFrames
200.000000	200.000000	4	59	mm	200.000000	451	1203
Frame#	Time	FHD			LBHD			RBHD			C7			T10			CLAV			LSHO			LUUPA			LMUPA			LDUPA			LLEP			LMEP			LUL			LRFIN			RSHO			RUPA1			RMUPA			RDUPA			RLEP			RMEP			RUL			RUFIN			LASI			RASI			USACR			LSACR			RSACR			LTHI1			LTHI2			LTHI3			LTHI4			LLFC			LMFC			LTIB1			LTIB2			LTIB3			LTIB4			LLMAL			LMMAL			LHEE			LMT1			LMT2			LMT5			RTHI			RTHI2			RTHI3			RTHI4			RLFC			RMFC			RTIB1			RTIB2			RTIB3			RTIB4			RLMAL			RMMAL			RHEE			RMT1			RMT2			RMT5			
		X1	Y1	Z1	X2	Y2	Z2	X3	Y3	Z3	X4	Y4	Z4	X5	Y5	Z5	X6	Y6	Z6	X7	Y7	Z7	X8	Y8	Z8	X9	Y9	Z9	X10	Y10	Z10	X11	Y11	Z11	X12	Y12	Z12	X13	Y13	Z13	X14	Y14	Z14	X15	Y15	Z15	X16	Y16	Z16	X17	Y17	Z17	X18	Y18	Z18	X19	Y19	Z19	X20	Y20	Z20	X21	Y21	Z21	X22	Y22	Z22	X23	Y23	Z23	X24	Y24	Z24	X25	Y25	Z25	X26	Y26	Z26	X27	Y27	Z27	X28	Y28	Z28	X29	Y29	Z29	X30	Y30	Z30	X31	Y31	Z31	X32	Y32	Z32	X33	Y33	Z33	X34	Y34	Z34	X35	Y35	Z35	X36	Y36	Z36	X37	Y37	Z37	X38	Y38	Z38	X39	Y39	Z39	X40	Y40	Z40	X41	Y41	Z41	X42	Y42	Z42	X43	Y43	Z43	X44	Y44	Z44	X45	Y45	Z45	X46	Y46	Z46	X47	Y47	Z47	X48	Y48	Z48	X49	Y49	Z49	X50	Y50	Z50	X51	Y51	Z51	X52	Y52	Z52	X53	Y53	Z53	X54	Y54	Z54	X55	Y55	Z55	X56	Y56	Z56	X57	Y57	Z57	X58	Y58	Z58	X59	Y59	Z59	

452	2.255	-246.9426574707032	1748.2490234375	-623.3964233398439	-404.9843750000001	1705.347534179688	-698.1427612304689	-233.9909362792969	1757.667846679688	-765.2985839843751	-422.1973266601564	1545.684326171875	-713.1082153320314	-444.0805053710939	1242.318725585938	-707.7039794921876	-263.0999755859376	1497.39990234375	-696.4310302734376	-276.4635925292969	1553.325805664063	-848.157897949219	-121.7276687622071	1491.219482421875	-953.8552856445315	-98.90961456298831	1527.9404296875	-927.544128417969	-52.69718551635744	1494.195434570313	-944.4819946289065	22.53474235534668	1499.840087890625	-925.7248535156252	27.54568672180176	1442.784057617188	-894.1863403320315	287.0104370117188	1546.384033203125	-876.6877441406252	376.8355712890626	1545.839965820313	-791.250915527344	-294.4280090332032	1549.115600585938	-545.5476074218751	-136.6943359375	1465.105590820313	-440.022918701172	-114.7929916381836	1503.487182617188	-464.8397827148439	-67.75356292724611	1474.5830078125	-442.6811828613282	-0.3323642611503602	1467.318115234375	-451.2945861816407	7.150107383728029	1407.583740234375	-500.1983642578126	266.9235839843751	1518.623657226563	-468.577362060547	356.1719360351563	1537.023193359375	-539.4723510742189	-285.9362182617188	1034.161865234375	-848.5795898437502	-280.0583496093751	1021.764831542969	-608.1059570312501	-468.459930419922	1127.585815429688	-706.9232177734376	-477.3231201171876	1097.927490234375	-736.3851928710939	-473.4110717773439	1094.389282226563	-678.2150878906251	-296.6930847167969	768.5320434570315	-945.6438598632815	-252.7608184814454	694.8956298828126	-950.934020996094	-208.5945434570313	698.1596069335939	-925.686950683594	-273.5129699707032	637.9533691406251	-950.3301391601565	-280.5329589843751	558.3627319335939	-944.7084960937502	-256.8468322753907	528.1376342773439	-815.9092407226565	-367.1901550292969	462.2645263671876	-910.8587646484377	-421.8590393066407	518.5257568359376	-946.7177734375002	-418.2713928222657	474.8988037109376	-939.2301025390627	-494.5434570312501	451.2356872558595	-909.2521972656252	-692.1733398437501	485.2678833007814	-895.268249511719	-669.6038818359376	437.0611877441407	-817.4793701171877	-674.4860839843751	536.0824584960939	-828.9095458984377	-797.468933105469	353.0387878417969	-820.205505371094	nan	nan	nan	-820.4512939453127	414.2825622558595	-905.0124511718752	-345.7095642089844	808.2268066406252	-542.8988037109376	-294.5602111816407	764.9228515625001	-544.8111572265626	-262.7077941894532	772.539001464844	-546.6384887695314	-299.5960083007813	684.6026000976564	-568.6666870117189	-251.6392211914063	519.2784423828126	-600.0302124023439	-216.4626464843751	525.7081298828126	-730.5379028320314	-242.6647644042969	332.3308715820313	-709.0071411132814	-298.2131958007813	257.1644287109376	-649.5973510742189	-266.4689941406251	247.9700775146485	-684.3823852539064	-286.8301086425782	212.4562072753907	-725.3839721679689	-369.9242553710938	113.5655822753907	-693.5310668945314	-336.7538452148438	143.5897674560547	-777.7103271484377	-438.8515014648439	102.5813903808594	-761.8889770507814	-228.1524047851563	62.67563629150392	-772.2666015625002	-225.0319824218751	57.11100387573244	-720.8402709960939	-273.9470214843751	24.32562446594239	-670.7921142578126	
453	2.26	-246.4657135009766	1747.601318359375	-623.0886840820314	-404.9070129394532	1704.699951171875	-697.9809570312501	-233.8240966796876	1756.952758789063	-765.0464477539064	-421.9683227539064	1545.03076171875	-713.0392456054689	-444.2156372070314	1241.778442382813	-707.8479614257814	-262.9869995117188	1496.550415039063	-696.3943481445314	-276.3850097656251	1552.718017578125	-848.200622558594	-122.0326614379883	1490.513427734375	-953.5974731445315	-98.80274963378909	1527.078002929688	-927.6306152343752	-52.79696273803712	1494.081176757813	-944.904235839844	22.48716735839844	1498.8515625	-925.672058105469	27.60885047912598	1442.52685546875	-894.4505615234377	287.2163391113282	1545.234130859375	-876.9780883789065	376.9205322265626	1544.862915039063	-791.609802246094	-294.2829589843751	1548.013916015625	-545.3041381835939	-136.2705230712891	1464.220825195313	-440.1984863281251	-114.4019927978516	1502.368041992188	-464.8103942871095	-67.39419555664064	1473.740478515625	-442.812469482422	-0.1238834410905838	1466.150756835938	-451.3317871093751	6.941185474395754	1406.648193359375	-500.9831542968751	267.1716613769532	1517.290771484375	-468.8034973144532	356.1720275878907	1536.065063476563	-539.6990356445314	-286.1174621582032	1033.296264648438	-848.7128906250002	-280.6097106933594	1020.955810546875	-608.1101074218751	-468.6861267089845	1127.050415039063	-707.1529541015626	-477.7308349609376	1097.444458007813	-736.5712280273439	-473.713592529297	1093.856323242188	-678.5476074218751	-297.0203857421876	767.6640014648439	-945.9467773437502	-253.1114196777344	693.9233398437501	-951.1600341796877	-209.2286529541016	697.3483886718751	-925.8242187500002	-274.0183410644532	637.1497192382814	-950.5932617187502	-280.9316711425782	557.4804687500001	-944.825134277344	-257.2302246093751	527.2114257812501	-815.9910278320315	-367.5791625976563	461.4581298828126	-910.8095703125002	-422.384979248047	517.7665405273439	-946.6525878906252	-418.7930908203126	474.1068725585939	-939.266296386719	-494.841278076172	450.2761230468751	-909.0381469726565	-692.4705200195314	484.2705688476564	-894.9863891601565	-669.8049316406251	436.1972961425782	-817.2254028320315	-674.7326049804689	535.0025024414064	-828.7117309570315	-797.5764770507815	352.1853027343751	-819.6474609375002	nan	nan	nan	-820.8076782226565	413.2083129882814	-904.3938598632815	-345.7046813964844	807.4639892578127	-543.0399780273439	-294.3610839843751	764.5233764648439	-545.0078735351564	-262.6565246582032	771.8693847656252	-546.8338623046876	-299.1099853515626	683.9816894531251	-568.8676147460939	-250.9153900146485	519.0045166015626	-600.1463012695314	-216.2212066650391	525.4766845703126	-730.5736694335939	-242.1824493408204	332.1769714355469	-709.1597900390626	-297.7492065429688	257.1080322265626	-649.7350463867189	-266.4115600585938	247.9409942626954	-684.6024780273439	-286.7410888671876	212.3390045166016	-725.4208374023439	-369.8917846679688	113.6198959350586	-693.6160888671876	-336.7356262207032	143.5546417236328	-777.8114013671877	-438.836883544922	102.629623413086	-761.9294433593751	-228.2954254150391	62.73690795898439	-772.3530883789065	-225.0234069824219	57.130184173584	-720.8524169921876	-273.9269104003907	24.32952499389649	-670.7908325195314	
454	2.265	-246.4622344970704	1746.868041992188	-622.9302368164064	-404.5323181152345	1703.88037109375	-697.9675292968751	-233.5950775146485	1756.2373046875	-764.8880004882814	-421.6473083496095	1544.40478515625	-712.9776000976564	-444.4613342285157	1241.00830078125	-707.8152465820314	-262.7687988281251	1495.835327148438	-696.3782348632814	-276.3219299316407	1551.761352539063	-848.1613769531252	-122.1061706542969	1489.777587890625	-953.5661621093752	-98.72615051269534	1526.239990234375	-927.635681152344	-52.83691024780275	1493.01123046875	-944.9900512695315	22.73464012145996	1497.833251953125	-925.9282226562502	27.90143013000489	1440.905395507813	-894.8188476562502	287.3594665527344	1544.107788085938	-877.3395996093752	377.1849060058594	1543.767822265625	-791.8602294921877	-294.2591857910157	1547.2841796875	-545.1984252929689	-136.2250366210938	1463.323608398438	-440.1592102050782	-114.4055862426758	1501.36962890625	-464.7664184570314	-67.34191131591798	1472.828735351563	-442.7547912597657	0.3380274176597596	1465.492431640625	-451.4819946289064	7.6001353263855	1405.919311523438	-500.6389770507814	267.3265380859376	1516.233520507813	-468.968475341797	356.6268005371094	1534.894165039063	-540.0104370117189	-286.3558044433594	1032.255249023438	-848.6854248046877	-281.0387573242188	1020.088073730469	-608.2341308593751	-468.6690673828126	1126.290893554688	-707.4282836914064	-477.7706298828126	1096.854248046875	-736.9022216796876	-473.7127380371095	1093.234375	-678.9820556640626	-297.4172668457032	766.8951416015626	-946.1322021484377	-253.4352264404297	693.0863647460939	-951.2720947265627	-209.7968292236329	696.2967529296876	-926.0539550781252	-274.4642639160157	636.2942504882814	-950.746765136719	-281.2404785156251	556.5405273437501	-944.982360839844	-257.3846435546876	526.6080322265626	-816.2120361328127	-367.5304870605469	460.3800659179689	-910.8477783203127	-422.5211791992189	516.6856079101564	-946.7541503906252	-419.0826110839845	473.0480957031251	-939.0461425781252	-495.1804809570314	449.528289794922	-908.8840942382815	-692.8805541992189	483.0965270996095	-894.6074218750002	-670.0572509765626	435.0719299316407	-816.9063110351565	-674.7805175781251	534.2425537109376	-828.6082153320315	-797.836120605469	351.2009887695313	-818.9485473632815	nan	nan	nan	-821.665954589844	412.585906982422	-903.7453613281252	-345.7627258300782	806.896667480469	-543.1060180664064	-294.2203979492188	763.8874511718751	-545.1315917968751	-262.5651245117188	771.4886474609377	-546.9157104492189	-298.8865661621094	683.4526367187501	-569.0837402343751	-250.3875427246094	518.5938110351564	-600.2334594726564	-215.8266296386719	525.3355712890626	-730.6569824218751	-241.7883758544922	331.9635925292969	-709.2583618164064	-297.5078125000001	256.9485778808594	-649.8501586914064	-266.2622070312501	247.7745361328126	-684.6085815429689	-286.7107543945313	212.2716369628907	-725.4879150390626	-369.8440246582032	113.6740417480469	-693.6124267578126	-336.6736145019532	143.548568725586	-777.8516235351565	-438.7767639160157	102.669303894043	-761.9941406250001	-228.247543334961	62.68100357055665	-772.3843383789065	-225.0448455810547	57.10899734497072	-720.8605346679689	-273.9380187988282	24.31782913208009	-670.8073120117189	
455	2.27	-246.3021545410157	1745.854125976563	-622.8569335937501	-404.286346435547	1703.29541015625	-697.8788452148439	-233.3073730468751	1755.498168945313	-764.6405029296876	-421.4684448242189	1543.672607421875	-712.8952026367189	-444.4474487304689	1240.334594726563	-707.9852294921876	-262.5496826171876	1495.025756835938	-696.2521362304689	-276.2689514160157	1550.940185546875	-848.0866699218752	-122.2822723388672	1488.810424804688	-953.5867309570315	-98.66529083251956	1525.116333007813	-927.5784912109377	-52.64645767211915	1492.233764648438	-945.104187011719	22.71764183044434	1496.809692382813	-925.9478149414065	27.62513732910157	1439.748413085938	-894.491882324219	287.5564575195313	1542.972900390625	-877.620056152344	377.3624267578126	1542.771362304688	-792.2246093750002	-293.8136596679688	1546.666381835938	-545.3484497070314	-135.9385681152344	1462.20068359375	-440.1763305664064	-114.2560653686524	1500.40380859375	-464.7602539062501	-67.1289520263672	1471.703491210938	-442.8014526367189	0.6336621046066285	1464.4375	-451.611785888672	7.476543426513674	1404.7548828125	-501.3650207519532	267.7209167480469	1515.380859375	-469.2063598632814	356.4172973632813	1534.135009765625	-540.0908203125001	-286.5597229003907	1031.593139648438	-848.8854980468752	-281.5122070312501	1019.267761230469	-608.2191162109376	-469.0690002441407	1125.727172851563	-707.4181518554689	-477.9280700683595	1096.265747070313	-737.0262451171876	-474.3362426757814	1092.630859375	-679.1057128906251	-297.8619384765626	766.1198120117189	-946.3336181640627	-253.6535339355469	692.3184814453126	-951.5312500000002	-209.9565582275391	695.4330444335939	-926.3613891601565	-274.8034362792969	635.5275878906251	-950.9240722656252	-281.5975036621094	555.8404541015626	-945.0213012695315	-257.6378479003907	526.0354614257814	-816.268249511719	-367.7542419433594	459.359588623047	-911.0417480468752	-423.1243591308595	515.8399047851564	-946.6306152343752	-419.4358520507814	472.0428771972657	-939.074890136719	-495.6189880371095	448.3306274414064	-908.795349121094	-693.1666259765626	482.1087646484376	-894.3419189453127	-670.2919311523439	434.5237121582032	-816.5078125000002	-675.0458374023439	533.1483764648439	-828.432067871094	-798.0913696289065	349.9992065429688	-818.315856933594	nan	nan	nan	-822.008728027344	411.5187072753907	-903.0574951171877	-345.9124450683594	806.3292236328127	-543.1651611328126	-294.1921081542969	763.6085815429689	-545.0323486328126	-262.6564636230469	771.0228271484377	-547.0100708007814	-298.5434570312501	683.1168823242189	-569.2956542968751	-249.9409484863282	518.4006347656251	-600.2724609375001	-215.364242553711	525.2168579101564	-730.8352050781251	-241.2837371826172	331.8844909667969	-709.3150024414064	-297.3548278808594	256.8359069824219	-649.8317871093751	-265.9076538085938	247.5332031250001	-684.6013793945314	-286.5370178222657	212.3951416015626	-725.5432128906251	-369.8181762695313	113.773551940918	-693.6387329101564	-336.5922851562501	143.5639801025391	-777.8565673828127	-438.8386840820314	102.7087554931641	-761.9960327148439	-228.1539001464844	62.690975189209	-772.3171997070315	-225.0195007324219	57.13853454589845	-720.8429565429689	-273.9606933593751	24.35202407836915	-670.7932128906251	
